<?xml version="1.0" standalone="no"?>
<!DOCTYPE svg PUBLIC "-//W3C//DTD SVG 20010904//EN"
 "http://www.w3.org/TR/2001/REC-SVG-20010904/DTD/svg10.dtd">
<svg version="1.0" xmlns="http://www.w3.org/2000/svg"
 width="720.000000pt" height="720.000000pt" viewBox="0 0 720.000000 720.000000"
 preserveAspectRatio="xMidYMid meet">
<metadata>
Created by potrace 1.11, written by Peter Selinger 2001-2013
</metadata>
<g transform="translate(0.000000,720.000000) scale(0.100000,-0.100000)"
fill="#000000" stroke="none">
<path d="M0 3600 l0 -3600 3600 0 3600 0 0 3600 0 3600 -3600 0 -3600 0 0
-3600z m2085 1780 c-3 -5 -10 -10 -16 -10 -5 0 -9 5 -9 10 0 6 7 10 16 10 8 0
12 -4 9 -10z m-265 -514 c0 -23 3 -23 113 -30 173 -11 224 -45 247 -167 9 -46
13 -788 6 -979 -2 -65 -20 -105 -59 -134 -24 -18 -48 -22 -160 -27 -85 -3
-137 -2 -146 5 -11 8 -12 36 -7 136 11 221 11 1079 1 1089 -6 6 -22 12 -35 15
-14 2 -27 5 -30 6 -3 0 3 7 13 14 15 11 15 15 3 19 -8 3 -17 1 -20 -6 -2 -7
-5 -2 -5 10 -1 16 3 21 14 17 11 -5 14 -2 8 12 -3 11 -11 22 -17 26 -7 5 -4 8
7 8 9 0 17 -6 17 -12 0 -7 5 -5 11 5 15 25 39 21 39 -7z m2956 -52 c67 -31
137 -108 177 -192 l32 -67 2 -415 c1 -228 4 -611 5 -850 4 -572 -1 -798 -19
-874 -31 -135 -104 -236 -207 -288 -53 -27 -71 -32 -141 -32 -66 0 -90 5 -138
27 -37 17 -61 34 -64 47 -3 11 -12 20 -20 20 -11 0 -14 7 -9 28 5 20 4 23 -4
12 -7 -10 -12 -12 -17 -4 -5 6 -22 19 -39 29 -23 13 -31 24 -29 41 1 13 -2 22
-7 21 -9 -2 -42 47 -70 103 -10 20 -13 247 -14 1050 -1 564 3 1041 7 1061 5
20 20 48 34 63 14 15 32 41 41 59 9 18 23 39 30 47 83 94 138 130 213 140 84
12 179 1 237 -26z m-2193 7 c35 -1 37 -3 37 -35 0 -41 -13 -46 -117 -46 -65 0
-72 -2 -79 -22 -8 -24 -6 -467 2 -480 3 -4 34 -8 70 -8 l64 0 0 -40 0 -40 -64
0 c-36 0 -67 -4 -70 -9 -9 -14 -12 -515 -3 -528 6 -9 38 -13 103 -13 l94 0 0
-41 0 -42 -146 6 c-80 3 -148 8 -150 10 -4 4 -3 782 1 1127 l2 155 44 5 c24 3
73 4 109 3 36 -1 82 -2 103 -2z m595 -63 c14 -74 47 -340 57 -448 3 -41 20
-194 36 -340 17 -146 37 -326 44 -400 8 -74 19 -172 25 -218 6 -45 21 -204 35
-353 34 -386 42 -381 85 51 17 173 46 455 65 625 18 171 37 373 41 450 3 77
11 149 17 160 6 11 14 91 18 177 6 109 13 166 23 187 9 16 21 61 28 100 l12
71 147 -1 148 0 0 -57 c1 -31 5 -93 9 -137 21 -195 9 -2373 -13 -2472 -5 -22
-10 -23 -95 -23 l-89 0 -3 118 c-6 178 -12 1185 -10 1545 2 196 -1 317 -7 317
-15 0 -19 -25 -31 -180 -15 -192 -23 -271 -59 -546 -16 -126 -35 -279 -41
-340 -6 -60 -20 -165 -31 -234 -11 -69 -26 -174 -34 -235 -8 -60 -27 -185 -42
-277 l-27 -168 -88 0 c-82 0 -89 2 -97 23 -5 12 -21 114 -35 227 -14 113 -49
381 -76 597 -28 215 -51 413 -52 440 0 26 -7 89 -14 138 -16 107 -19 133 -28
245 -25 333 -34 384 -55 351 -11 -16 -7 -1481 4 -1792 7 -181 7 -187 -14 -208
-18 -18 -33 -21 -106 -21 l-84 0 -6 32 c-4 18 -3 413 0 878 6 795 13 1643 14
1738 l1 42 158 0 158 0 12 -62z m2146 30 c8 -12 13 -25 10 -30 -3 -4 2 -8 11
-8 9 0 14 -4 11 -9 -3 -5 6 -21 19 -35 14 -15 25 -33 25 -41 0 -8 6 -18 13
-22 35 -21 47 -93 50 -293 2 -233 -5 -689 -10 -642 -2 18 -9 30 -14 27 -5 -4
-9 6 -9 22 0 22 2 25 10 13 8 -12 10 -10 10 8 0 13 -4 21 -9 18 -5 -3 -11 5
-13 19 -3 16 0 26 11 30 14 6 14 7 -1 16 -11 6 -18 22 -18 39 0 16 -4 31 -9
34 -12 8 -20 66 -9 66 5 0 2 7 -6 16 -15 14 -21 45 -17 87 1 9 -5 20 -13 23
-9 3 -13 10 -10 15 3 5 -2 9 -11 9 -9 0 -13 5 -10 10 4 6 1 17 -5 25 -6 8 -9
22 -6 32 3 10 -1 31 -9 47 -8 15 -15 41 -15 56 0 16 -6 30 -12 32 -9 3 -14 38
-16 114 -2 60 -5 158 -8 217 -2 60 -2 113 1 118 11 16 44 9 59 -13z m127
-1151 c-13 -13 -26 -3 -16 12 3 6 11 8 17 5 6 -4 6 -10 -1 -17z m-116 -34 c11
-1 35 -5 52 -9 25 -5 34 -2 39 10 3 9 12 16 19 16 11 0 14 -37 16 -172 3 -260
3 -302 0 -720 -1 -213 0 -392 4 -398 4 -6 80 -10 200 -10 l193 0 -3 -87 c-1
-49 -3 -91 -4 -95 0 -4 -134 -6 -296 -5 l-296 2 1 712 c0 455 4 721 10 738 6
15 7 31 4 37 -4 5 4 4 17 -3 13 -8 33 -15 44 -16z m-2764 -927 c6 17 7 16 10
-6 3 -20 10 -25 32 -25 26 1 34 -15 27 -50 -1 -5 2 -7 5 -3 11 10 47 -11 40
-23 -4 -5 -12 -6 -18 -2 -27 17 -39 11 -19 -10 13 -14 20 -36 20 -58 0 -36 36
-152 55 -176 5 -7 6 -13 3 -13 -4 0 -2 -9 4 -20 6 -11 15 -18 21 -15 5 4 9 1
9 -4 0 -6 -5 -11 -11 -11 -5 0 -7 -5 -3 -12 5 -8 2 -9 -11 -4 -18 6 -18 6 -2
-12 31 -34 16 -52 -44 -52 -22 0 -29 5 -29 20 0 11 -4 20 -9 20 -5 0 -16 24
-25 53 -10 28 -28 82 -42 118 -13 36 -27 74 -29 85 -3 10 -14 44 -24 74 -22
61 -26 90 -11 90 5 0 7 -7 4 -15 -4 -8 -2 -21 4 -28 5 -6 13 -25 17 -42 4 -16
9 -25 12 -18 2 6 -3 28 -11 48 -19 44 -19 48 -6 40 15 -9 12 4 -5 21 -8 8 -12
21 -9 29 5 12 8 12 22 -1 15 -15 16 -15 23 2z m199 -55 c0 -6 -4 -13 -10 -16
-5 -3 -10 1 -10 9 0 9 5 16 10 16 6 0 10 -4 10 -9z m625 -1021 c-3 -5 -12 -10
-18 -10 -7 0 -6 4 3 10 19 12 23 12 15 0z m63 -12 c16 -16 15 -28 -3 -28 -8 0
-15 2 -15 4 0 2 -3 11 -6 20 -7 19 7 21 24 4z m347 -348 c3 -5 1 -10 -4 -10
-6 0 -11 5 -11 10 0 6 2 10 4 10 3 0 8 -4 11 -10z m365 -30 c9 -17 8 -20 -7
-20 -19 0 -55 19 -38 20 6 0 4 4 -4 9 -7 5 -10 14 -7 20 9 15 42 -2 56 -29z
m-87 23 c-13 -2 -35 -2 -50 0 -16 2 -5 4 22 4 28 0 40 -2 28 -4z"/>
<path d="M1946 4724 c-9 -8 -17 -30 -17 -47 -6 -134 -8 -937 -3 -994 l6 -73
51 0 c61 0 69 4 91 48 15 29 16 62 12 290 -3 141 -5 264 -6 272 -2 21 9 270
15 355 6 79 -12 145 -41 156 -34 13 -92 10 -108 -7z"/>
<path d="M4514 4621 c-18 -11 -43 -35 -58 -54 -22 -29 -26 -44 -26 -100 0 -47
-4 -67 -12 -67 -9 0 -9 -3 1 -9 12 -8 12 -12 2 -25 -10 -11 -10 -16 -2 -16 9
0 12 -213 10 -875 0 -481 -4 -877 -8 -880 -10 -6 -3 -108 10 -161 20 -78 100
-134 191 -134 59 0 139 71 158 139 5 21 11 289 14 626 2 325 4 597 4 605 1 8
0 195 -2 416 -2 268 -7 412 -15 435 -13 41 -64 93 -104 108 -46 18 -128 13
-163 -8z"/>
<path d="M4971 3774 c0 -11 3 -14 6 -6 3 7 2 16 -1 19 -3 4 -6 -2 -5 -13z"/>
</g>
</svg>
